<?xml version="1.0" encoding="iso-8859-1"?>
<!-- Generator: Adobe Illustrator 19.0.0, SVG Export Plug-In . SVG Version: 6.00 Build 0)  -->
<svg version="1.1" id="Capa_1" xmlns="http://www.w3.org/2000/svg" xmlns:xlink="http://www.w3.org/1999/xlink" x="0px" y="0px"
	 viewBox="0 0 392.146 392.146" style="enable-background:new 0 0 392.146 392.146;" xml:space="preserve">
<path style="fill:#00EFD1;" d="M261.216,190.96c52.49-8.144,101.644,27.805,109.788,80.295s-27.805,101.644-80.295,109.788
	c-36.311,5.634-72.658-9.914-93.663-40.064h-0.01c-30.367-43.574-19.661-103.516,23.913-133.883
	C232.967,198.721,246.74,193.202,261.216,190.96L261.216,190.96z"/>
<g>
	<path style="fill:#00ACEA;" d="M261.216,136.38v54.58c-37.203,5.791-67.618,32.736-77.85,68.97
		c-14.18,1.904-28.473,2.846-42.78,2.82c-66.63,0-120.63-19.53-120.63-43.65v-82.72c0,24.12,54,43.65,120.63,43.65
		S261.216,160.5,261.216,136.38L261.216,136.38z"/>
	<path style="fill:#00ACEA;" d="M261.216,53.66v82.72c0,24.12-53.99,43.65-120.63,43.65s-120.63-19.53-120.63-43.65V53.66
		c0,24.11,54.01,43.66,120.63,43.66S261.216,77.77,261.216,53.66z"/>
</g>
<ellipse style="fill:#00EFD1;" cx="140.586" cy="53.66" rx="120.63" ry="43.66"/>
<path style="fill:#00ACEA;" d="M183.366,259.93c-7.769,27.703-2.755,57.428,13.67,81.05c-18.616,3.455-37.516,5.152-56.45,5.07
	c-66.63,0-120.63-19.54-120.63-43.66V219.1c0,24.12,54,43.65,120.63,43.65C154.893,262.776,169.186,261.834,183.366,259.93
	L183.366,259.93z"/>
<g>
	<path style="fill:#083863;" d="M121.046,147.09h40c5.523,0,10-4.477,10-10s-4.477-10-10-10h-40c-5.523,0-10,4.477-10,10
		S115.523,147.09,121.046,147.09z"/>
	<path style="fill:#083863;" d="M121.046,229.09h40c5.523,0,10-4.477,10-10s-4.477-10-10-10h-40c-5.523,0-10,4.477-10,10
		S115.523,229.09,121.046,229.09z"/>
	<path style="fill:#083863;" d="M275.871,179.83c-1.583,0-2.825,0.045-4.825,0.115V53.66c0-11.45-7.188-27.732-41.84-40.274
		C205.358,4.754,173.898,0,140.546,0S75.758,4.754,51.909,13.39C17.254,25.929,10.046,42.21,10.046,53.66v248.73
		c0,11.452,7.229,27.737,41.881,40.278c23.844,8.63,55.324,13.382,88.682,13.382c17.46,0.061,34.894-1.324,52.125-4.142
		c36.408,45.954,103.175,53.693,149.129,17.285s53.693-103.175,17.285-149.129C338.997,194.63,308.32,179.809,275.871,179.83
		L275.871,179.83z M140.586,20c72.634,0,110.63,21.913,110.63,33.66s-38,33.66-110.63,33.66S29.956,65.407,29.956,53.66
		S67.952,20,140.586,20z M30.046,83.47c6.918,4.227,14.251,7.733,21.884,10.464c23.849,8.632,55.327,13.386,88.679,13.386
		s64.761-4.754,88.608-13.386c7.616-2.73,14.931-6.236,21.829-10.463v52.909c0,11.744-37.866,33.65-110.5,33.65
		s-110.5-21.906-110.5-33.65L30.046,83.47z M30.046,217.37v-51.18c6.917,4.226,14.249,7.731,21.881,10.46
		c23.843,8.626,55.323,13.377,88.682,13.377s64.77-4.751,88.611-13.377c7.615-2.727,14.929-6.23,21.826-10.455v16.557
		c-35.041,8.411-63.417,34.034-75.348,68.038c-11.671,1.317-23.407,1.972-35.152,1.96c-31.1,0-60.117-4.327-81.833-12.183
		c-21.209-7.677-28.667-16.36-28.667-21.467L30.046,217.37z M58.733,323.862c-21.207-7.672-28.687-16.364-28.687-21.472v-53.477
		c6.917,4.226,14.249,7.731,21.881,10.461C75.77,268,107.25,272.75,140.609,272.75c10.256,0,20.349-0.459,30.189-1.347
		c-1.403,10.167-1.338,20.483,0.194,30.631c-0.54-5.086-4.831-8.945-9.946-8.944h-40c-5.523,0-10,4.477-10,10s4.477,10,10,10h40
		c5.523,0,10-4.477,10-10c0-0.343-0.018-0.681-0.051-1.015c1.653,10.913,5.014,21.498,9.96,31.365
		c-13.377,1.752-26.855,2.624-40.346,2.61C109.513,336.05,80.446,331.721,58.733,323.862z M275.956,372.18
		c-28.186-0.015-54.587-13.8-70.71-36.92c-0.074-0.105-0.148-0.208-0.225-0.309c-27.037-39.163-17.208-92.829,21.955-119.866
		c10.694-7.383,22.919-12.251,35.76-14.241h0.023c47.034-7.287,91.069,24.934,98.356,71.968s-24.934,91.069-71.968,98.356
		c-4.363,0.676-8.772,1.016-13.188,1.016L275.956,372.18z"/>
	<path style="fill:#083863;" d="M300.668,287.44l-14.622,13.65v-53.14c0-5.523-4.477-10-10-10s-10,4.477-10,10v53.14l-14.7-13.646
		c-4.08-3.732-10.413-3.451-14.145,0.629c-3.68,4.022-3.465,10.25,0.483,14.009l31.464,29.3c3.839,3.572,9.785,3.572,13.624,0
		l31.479-29.3c4.045-3.749,4.285-10.066,0.536-14.111c-3.749-4.045-10.066-4.285-14.111-0.536c-0.002,0.002-0.005,0.005-0.007,0.007
		L300.668,287.44z"/>
</g>
<g>
</g>
<g>
</g>
<g>
</g>
<g>
</g>
<g>
</g>
<g>
</g>
<g>
</g>
<g>
</g>
<g>
</g>
<g>
</g>
<g>
</g>
<g>
</g>
<g>
</g>
<g>
</g>
<g>
</g>
</svg>
